HIERARCHY
ROOT SpineBase
{
  OFFSET 0.000000 0.000000 0.000000
  CHANNELS 6 Xposition Yposition Zposition Zrotation Xrotation Yrotation
  JOINT SpineMid
  {
    OFFSET 0.000000 28.991404 -0.000000
    CHANNELS 3 Zrotation Xrotation Yrotation
    JOINT SpineShoulder
    {
      OFFSET -0.194775 21.442250 -0.661182
      CHANNELS 3 Zrotation Xrotation Yrotation
      JOINT Neck
      {
        OFFSET -0.064999 7.088549 -0.525677
        CHANNELS 3 Zrotation Xrotation Yrotation
        JOINT Head
        {
          OFFSET -2.848861 12.397580 0.444176
          CHANNELS 3 Zrotation Xrotation Yrotation
          End Site
          {
            OFFSET 0 0 0
          }
        }
      }
      JOINT ShoulderLeft
      {
        OFFSET -14.447207 -5.611436 6.350931
        CHANNELS 3 Zrotation Xrotation Yrotation
        JOINT ElbowLeft
        {
          OFFSET -2.046579 -26.761397 8.078095
          CHANNELS 3 Zrotation Xrotation Yrotation
          JOINT WristLeft
          {
            OFFSET 0.185049 -25.346129 -5.251662
            CHANNELS 3 Zrotation Xrotation Yrotation
            JOINT HandLeft
            {
              OFFSET 0.499603 -3.311093 -0.040284
              CHANNELS 3 Zrotation Xrotation Yrotation
              JOINT HandTipLeft
              {
                OFFSET 2.253090 -5.038768 -1.297448
                CHANNELS 3 Zrotation Xrotation Yrotation
                End Site
                {
                  OFFSET 0 0 0
                }
              }
              JOINT ThumbLeft
              {
                OFFSET -2.597975 -0.506057 -1.226569
                CHANNELS 3 Zrotation Xrotation Yrotation
                End Site
                {
                  OFFSET 0 0 0
                }
              }
            }
          }
        }
      }
      JOINT ShoulderRight
      {
        OFFSET 9.952356 -4.668485 -11.216955
        CHANNELS 3 Zrotation Xrotation Yrotation
        JOINT ElbowRight
        {
          OFFSET 6.916880 -23.053880 -1.085459
          CHANNELS 3 Zrotation Xrotation Yrotation
          JOINT WristRight
          {
            OFFSET 1.381422 -22.064446 -4.533045
            CHANNELS 3 Zrotation Xrotation Yrotation
            JOINT HandRight
            {
              OFFSET -0.067951 -8.359521 1.288135
              CHANNELS 3 Zrotation Xrotation Yrotation
              JOINT HandTipRight
              {
                OFFSET 2.300575 -7.688236 1.310609
                CHANNELS 3 Zrotation Xrotation Yrotation
                End Site
                {
                  OFFSET 0 0 0
                }
              }
              JOINT ThumbRight
              {
                OFFSET -2.549612 0.996404 -0.435610
                CHANNELS 3 Zrotation Xrotation Yrotation
                End Site
                {
                  OFFSET 0 0 0
                }
              }
            }
          }
        }
      }
    }
  }
  JOINT HipLeft
  {
    OFFSET -5.078236 0.166837 -0.184729
    CHANNELS 3 Zrotation Xrotation Yrotation
    JOINT KneeLeft
    {
      OFFSET 6.482164 -29.114941 9.597018
      CHANNELS 3 Zrotation Xrotation Yrotation
      JOINT AnkleLeft
      {
        OFFSET 8.497923 -32.947595 9.059827
        CHANNELS 3 Zrotation Xrotation Yrotation
        JOINT FootLeft
        {
          OFFSET -4.572509 -3.675376 -9.683026
          CHANNELS 3 Zrotation Xrotation Yrotation
          End Site
          {
            OFFSET 0 0 0
          }
        }
      }
    }
  }
  JOINT HipRight
  {
    OFFSET 4.836271 0.985429 -6.429586
    CHANNELS 3 Zrotation Xrotation Yrotation
    JOINT KneeRight
    {
      OFFSET 9.499076 -32.396465 9.149016
      CHANNELS 3 Zrotation Xrotation Yrotation
      JOINT AnkleRight
      {
        OFFSET 5.529174 -29.962756 6.929955
        CHANNELS 3 Zrotation Xrotation Yrotation
        JOINT FootRight
        {
          OFFSET -2.628587 -6.183644 0.543658
          CHANNELS 3 Zrotation Xrotation Yrotation
          End Site
          {
            OFFSET 0 0 0
          }
        }
      }
    }
  }
}
MOTION
Frames: 5
Frame Time: 0.033333
8.944476 67.255983 346.036410 3.123840 1.901595 37.516072 -0.881934 -0.307480 -37.466766 0.294014 0.627208 0.127894 -10.473669 -2.973472 -0.614021 0.000000 0.000000 0.000000 10.116193 40.358644 -4.940394 -112.271705 -74.757424 -94.711634 26.779771 36.039325 -18.194375 -32.782698 -3.014409 5.554481 0.000000 0.000000 0.000000 0.000000 0.000000 0.000000 -149.279976 72.073475 178.951420 157.666194 76.768454 -29.304048 23.033292 4.088775 -58.088149 -40.920041 -1.542346 1.328052 0.000000 0.000000 0.000000 0.000000 0.000000 0.000000 -9.077305 2.663041 -39.641009 7.376110 0.826668 2.325273 0.743495 -3.065544 -1.822363 0.000000 0.000000 0.000000 -3.635181 0.395635 -37.555373 0.408583 -1.017780 -0.089449 -14.294976 -17.557832 4.491869 0.000000 0.000000 0.000000
8.928764 67.211379 346.058741 3.127407 1.842472 37.264220 -0.738043 -0.264561 -37.211092 0.294954 0.590621 0.132126 -11.147779 -3.596937 -0.814280 0.000000 0.000000 0.000000 9.924911 40.442439 -4.967380 -113.100626 -74.672232 -95.562964 26.852967 34.963275 -18.385107 -32.934395 -2.043451 6.297302 0.000000 0.000000 0.000000 0.000000 0.000000 0.000000 -148.870873 73.154895 178.302775 155.379710 75.482790 -29.012091 23.352539 10.269952 -51.014514 -43.931099 -2.081061 7.562396 0.000000 0.000000 0.000000 0.000000 0.000000 0.000000 -8.613866 2.279844 -39.225262 6.523191 0.798728 2.073948 -0.177699 -1.788601 0.009315 0.000000 0.000000 0.000000 -3.603941 0.428784 -37.301031 -0.000000 0.000000 0.000000 -14.152319 -17.533682 3.813341 0.000000 0.000000 0.000000
8.905665 67.141962 346.144498 3.176349 1.781492 37.078387 -0.544080 -0.124761 -37.022894 0.257049 0.532722 0.135030 -12.243021 -4.530679 -1.118195 0.000000 0.000000 0.000000 9.735294 40.421566 -4.966986 -113.728471 -74.612518 -96.221693 26.675386 34.859104 -18.298788 -32.073765 -1.945562 6.045334 0.000000 0.000000 0.000000 0.000000 0.000000 0.000000 -149.405583 74.672904 178.961890 156.156185 74.309459 -28.673224 22.616336 14.956692 -45.369558 -41.008808 -0.381461 3.536551 0.000000 0.000000 0.000000 0.000000 0.000000 0.000000 -8.569262 2.313788 -39.010995 6.514837 0.736388 2.055213 -1.858345 -0.260599 2.538117 0.000000 0.000000 0.000000 -3.607599 0.495186 -37.112190 -0.000000 0.000000 0.000000 -14.264313 -16.868038 3.596549 0.000000 0.000000 0.000000
8.891074 67.022766 346.243143 3.126764 1.583506 37.027362 -0.544931 -0.023255 -36.972357 0.205061 0.449847 0.127581 -12.438816 -4.341904 -1.073417 0.000000 0.000000 0.000000 9.863416 40.745485 -5.026644 -114.257410 -74.561559 -96.779556 26.843180 35.862141 -18.292556 -32.081341 -4.905509 3.933087 0.000000 0.000000 0.000000 0.000000 0.000000 0.000000 -156.834777 77.377188 -171.753389 160.088789 72.906295 -22.421732 21.341529 15.042044 -45.784756 -25.707912 2.989142 -20.220458 0.000000 0.000000 0.000000 0.000000 0.000000 0.000000 -8.825570 2.709211 -39.088444 7.296144 0.733280 2.268661 -4.160804 1.347585 5.704430 0.000000 0.000000 0.000000 -2.654373 -0.080224 -36.781519 -1.005040 -1.078935 -0.474090 -14.188802 -15.813310 4.102737 0.000000 0.000000 0.000000
8.884521 66.879739 346.363583 2.987731 1.233473 36.987436 -0.642971 0.063961 -36.933156 0.096342 0.312347 0.109543 -11.894081 -3.081701 -0.690117 0.000000 0.000000 0.000000 10.235996 41.316777 -5.124698 -113.812346 -74.410106 -96.255575 27.272878 36.080763 -18.447680 -33.124782 -7.891980 2.067986 0.000000 0.000000 0.000000 0.000000 0.000000 0.000000 -165.926297 80.892094 -161.529571 172.045133 71.120660 -21.915446 21.055439 16.438722 -44.008980 -15.887452 1.553423 -35.966704 0.000000 0.000000 0.000000 0.000000 0.000000 0.000000 -8.434677 2.898703 -38.989225 7.224281 0.640284 2.229791 -2.774096 -0.190571 4.295911 0.000000 0.000000 0.000000 -2.108267 0.121764 -36.641121 -1.001970 -1.161220 -0.511822 -14.658371 -16.679993 4.209093 0.000000 0.000000 0.000000
